<svg width="24" height="25" viewBox="0 0 24 25" fill="none" xmlns="http://www.w3.org/2000/svg">
<g clip-path="url(#clip0_8368_4955)">
<path d="M10.94 13.5908L9.62 14.9108C9.41924 14.1026 8.95376 13.3847 8.29772 12.8717C7.64168 12.3587 6.83282 12.08 6 12.08C5.16718 12.08 4.35832 12.3587 3.70228 12.8717C3.04624 13.3847 2.58076 14.1026 2.38 14.9108L1.06 13.5908L0 14.6508L1.72 16.3708L1.5 16.5908V18.0908H0V19.5908H1.5V19.6708C1.5765 20.1595 1.71425 20.6366 1.91 21.0908L0 23.0308L1.06 24.0908L2.71 22.4408C3.10257 22.9417 3.60118 23.3494 4.17002 23.6347C4.73885 23.92 5.36381 24.0757 6 24.0908C6.63619 24.0757 7.26115 23.92 7.82998 23.6347C8.39882 23.3494 8.89743 22.9417 9.29 22.4408L10.94 24.0908L12 23.0308L10.09 21.0908C10.2882 20.627 10.426 20.1397 10.5 19.6408V19.5408H12V18.0908H10.5V16.5908L10.28 16.3708L12 14.6508L10.94 13.5908ZM6 13.5908C6.59674 13.5908 7.16903 13.8279 7.59099 14.2498C8.01295 14.6718 8.25 15.2441 8.25 15.8408H3.75C3.75 15.2441 3.98705 14.6718 4.40901 14.2498C4.83097 13.8279 5.40326 13.5908 6 13.5908ZM9 19.5908C8.92674 20.3617 8.58713 21.0829 8.0396 21.6304C7.49207 22.178 6.77085 22.5176 6 22.5908C5.22915 22.5176 4.50793 22.178 3.9604 21.6304C3.41287 21.0829 3.07326 20.3617 3 19.5908V17.3408H9V19.5908ZM23.76 9.69082V10.9508L13.5 17.4608V15.6908L22 10.3208L9 2.09082V11.5508C8.54306 11.2299 8.03624 10.9866 7.5 10.8308V0.72082L8.64 0.0908203L23.76 9.69082Z" fill="#C5C5C5"/>
</g>
<defs>
<clipPath id="clip0_8368_4955">
<rect width="24" height="24" fill="white" transform="translate(0 0.0908203)"/>
</clipPath>
</defs>
</svg>
