<svg width="24" height="25" viewBox="0 0 24 25" fill="none" xmlns="http://www.w3.org/2000/svg">
<g clip-path="url(#clip0_8368_4952)">
<path d="M21.0067 8.3125C21.0102 7.61874 20.8205 6.93771 20.4589 6.34567C20.0971 5.75363 19.5778 5.27397 18.959 4.96039C18.3401 4.64682 17.6461 4.51173 16.9548 4.57023C16.2635 4.62875 15.6022 4.87855 15.0448 5.29167C14.4875 5.70479 14.0561 6.26491 13.7991 6.90932C13.5421 7.55372 13.4695 8.25695 13.5895 8.94026C13.7096 9.62356 14.0174 10.26 14.4787 10.7782C14.94 11.2965 15.5365 11.676 16.2012 11.8744C15.9558 12.3732 15.576 12.7939 15.1047 13.0887C14.6334 13.3837 14.0892 13.5413 13.5331 13.544H10.5437C9.43702 13.5479 8.37138 13.9635 7.55427 14.7099V7.48891C8.46159 7.3037 9.26783 6.78819 9.81668 6.04233C10.3655 5.29647 10.6178 4.37338 10.5248 3.45203C10.4317 2.53069 9.99985 1.67672 9.31292 1.05569C8.62599 0.434666 7.73295 0.0908203 6.80691 0.0908203C5.88087 0.0908203 4.98783 0.434666 4.3009 1.05569C3.61397 1.67672 3.18211 2.53069 3.08904 3.45203C2.99596 4.37338 3.24831 5.29647 3.79715 6.04233C4.34599 6.78819 5.15223 7.3037 6.05955 7.48891V16.6067C5.15393 16.7799 4.34299 17.2785 3.77969 18.0084C3.21639 18.7385 2.93968 19.6493 3.00173 20.5693C3.06379 21.4892 3.46033 22.3547 4.11656 23.0023C4.77279 23.65 5.64335 24.0352 6.56403 24.0853C7.48472 24.1353 8.39187 23.8466 9.1144 23.2738C9.83693 22.701 10.3249 21.8836 10.4862 20.9758C10.6475 20.068 10.4712 19.1326 9.99023 18.3458C9.50932 17.5591 8.75717 16.9756 7.87564 16.7053C8.12152 16.207 8.50142 15.7871 8.97272 15.4927C9.44401 15.1983 9.98803 15.0411 10.5437 15.0387H13.5331C14.4658 15.0344 15.3739 14.7394 16.1311 14.1947C16.8882 13.65 17.4566 12.8828 17.7572 12C18.6531 11.8822 19.476 11.4436 20.0735 10.7656C20.671 10.0876 21.0025 9.21615 21.0067 8.3125ZM4.56483 3.82834C4.56483 3.3849 4.69633 2.95142 4.94269 2.58272C5.18906 2.21401 5.53922 1.92663 5.9489 1.75693C6.3586 1.58724 6.8094 1.54284 7.24432 1.62936C7.67924 1.71586 8.07874 1.9294 8.3923 2.24296C8.70586 2.55652 8.9194 2.95602 9.00591 3.39094C9.09241 3.82586 9.04802 4.27667 8.87832 4.68635C8.70862 5.09603 8.42125 5.44621 8.05254 5.69257C7.68383 5.93893 7.25035 6.07042 6.80691 6.07042C6.21227 6.07042 5.642 5.83421 5.22152 5.41373C4.80105 4.99327 4.56483 4.42298 4.56483 3.82834ZM9.04899 20.2702C9.04899 20.7137 8.91749 21.1471 8.67113 21.5158C8.42476 21.8845 8.0746 22.1719 7.66492 22.3416C7.25523 22.5113 6.80442 22.5558 6.36951 22.4693C5.93458 22.3828 5.53509 22.1692 5.22152 21.8556C4.90796 21.542 4.69443 21.1426 4.60791 20.7077C4.52141 20.2727 4.5658 19.8219 4.7355 19.4123C4.9052 19.0025 5.19258 18.6524 5.56128 18.406C5.92999 18.1597 6.36347 18.0282 6.80691 18.0282C7.40155 18.0282 7.97183 18.2644 8.3923 18.6848C8.81277 19.1054 9.04899 19.6756 9.04899 20.2702ZM17.2699 10.5546C16.8265 10.5546 16.393 10.423 16.0243 10.1767C15.6556 9.93036 15.3683 9.58019 15.1986 9.17051C15.0289 8.76082 14.9844 8.31002 15.0709 7.87509C15.1574 7.44017 15.3709 7.04067 15.6845 6.72711C15.9981 6.41355 16.3976 6.20001 16.8325 6.1135C17.2674 6.02699 17.7183 6.0714 18.1279 6.24109C18.5377 6.41079 18.8878 6.69816 19.1341 7.06687C19.3805 7.43558 19.512 7.86905 19.512 8.3125C19.512 8.90714 19.2757 9.47742 18.8553 9.89788C18.4348 10.3183 17.8645 10.5546 17.2699 10.5546Z" fill="#C5C5C5"/>
</g>
<defs>
<clipPath id="clip0_8368_4952">
<rect width="24" height="24" fill="white" transform="translate(0 0.0908203)"/>
</clipPath>
</defs>
</svg>
