<svg xmlns="http://www.w3.org/2000/svg" style="display: none;">
    <symbol id="icon-vscode" viewBox="0 0 100 100">
        <title>비주얼 스튜디오 코드 로고</title>
        <mask id="vscode-a" width="100" height="100" x="0" y="0" mask-type="alpha" maskUnits="userSpaceOnUse"><path fill="#fff" fill-rule="evenodd" d="M70.912 99.317a6.22 6.22 0 0 0 4.96-.19l20.589-9.907A6.25 6.25 0 0 0 100 83.587V16.413a6.25 6.25 0 0 0-3.54-5.632L75.874.874a6.23 6.23 0 0 0-7.104 1.21L29.355 38.04 12.187 25.01a4.16 4.16 0 0 0-5.318.236l-5.506 5.009a4.17 4.17 0 0 0-.004 6.162L16.247 50 1.36 63.583a4.17 4.17 0 0 0 .004 6.162l5.506 5.01a4.16 4.16 0 0 0 5.318.236l17.168-13.032L68.77 97.917a6.2 6.2 0 0 0 2.143 1.4M75.015 27.3 45.11 50l29.906 22.701z" clip-rule="evenodd"/></mask><g mask="url(#a)"><path fill="#0065a9" d="M96.461 10.796 75.857.876a6.23 6.23 0 0 0-7.107 1.207l-67.451 61.5a4.167 4.167 0 0 0 .004 6.162l5.51 5.009a4.17 4.17 0 0 0 5.32.236l81.228-61.62c2.725-2.067 6.639-.124 6.639 3.297v-.24a6.25 6.25 0 0 0-3.539-5.63"/><g filter="url(#b)"><path fill="#007acc" d="m96.461 89.204-20.604 9.92a6.23 6.23 0 0 1-7.107-1.207l-67.451-61.5a4.167 4.167 0 0 1 .004-6.162l5.51-5.009a4.17 4.17 0 0 1 5.32-.236l81.228 61.62c2.725 2.067 6.639.124 6.639-3.297v.24a6.25 6.25 0 0 1-3.539 5.63"/></g><g filter="url(#c)"><path fill="#1f9cf0" d="M75.858 99.126a6.23 6.23 0 0 1-7.108-1.21c2.306 2.307 6.25.674 6.25-2.588V4.672c0-3.262-3.944-4.895-6.25-2.589a6.23 6.23 0 0 1 7.108-1.21l20.6 9.908A6.25 6.25 0 0 1 100 16.413v67.174a6.25 6.25 0 0 1-3.541 5.633z"/></g><path fill="url(#d)" fill-rule="evenodd" d="M70.851 99.317a6.22 6.22 0 0 0 4.96-.19L96.4 89.22a6.25 6.25 0 0 0 3.54-5.633V16.413a6.25 6.25 0 0 0-3.54-5.632L75.812.874a6.23 6.23 0 0 0-7.104 1.21L29.294 38.04 12.126 25.01a4.16 4.16 0 0 0-5.317.236l-5.507 5.009a4.17 4.17 0 0 0-.004 6.162L16.186 50 1.298 63.583a4.17 4.17 0 0 0 .004 6.162l5.507 5.009a4.16 4.16 0 0 0 5.317.236L29.294 61.96l39.414 35.958a6.2 6.2 0 0 0 2.143 1.4M74.954 27.3 45.048 50l29.906 22.701z" clip-rule="evenodd" opacity=".25" style="mix-blend-mode:overlay"/></g><defs><filter id="vscode-b" width="116.727" height="92.246" x="-8.394" y="15.829" color-interpolation-filters="sRGB" filterUnits="userSpaceOnUse"><feFlood flood-opacity="0" result="BackgroundImageFix"/><feColorMatrix in="SourceAlpha" values="0 0 0 0 0 0 0 0 0 0 0 0 0 0 0 0 0 0 127 0"/><feOffset/><feGaussianBlur stdDeviation="4.167"/><feColorMatrix values="0 0 0 0 0 0 0 0 0 0 0 0 0 0 0 0 0 0 0.25 0"/><feBlend in2="BackgroundImageFix" mode="overlay" result="effect1_dropShadow"/><feBlend in="SourceGraphic" in2="effect1_dropShadow" result="shape"/></filter><filter id="vscode-c" width="47.917" height="116.151" x="60.417" y="-8.076" color-interpolation-filters="sRGB" filterUnits="userSpaceOnUse"><feFlood flood-opacity="0" result="BackgroundImageFix"/><feColorMatrix in="SourceAlpha" values="0 0 0 0 0 0 0 0 0 0 0 0 0 0 0 0 0 0 127 0"/><feOffset/><feGaussianBlur stdDeviation="4.167"/><feColorMatrix values="0 0 0 0 0 0 0 0 0 0 0 0 0 0 0 0 0 0 0.25 0"/><feBlend in2="BackgroundImageFix" mode="overlay" result="effect1_dropShadow"/><feBlend in="SourceGraphic" in2="effect1_dropShadow" result="shape"/></filter><linearGradient id="vscode-d" x1="49.939" x2="49.939" y1=".258" y2="99.742" gradientUnits="userSpaceOnUse"><stop stop-color="#fff"/><stop offset="1" stop-color="#fff" stop-opacity="0"/></linearGradient></defs>
    </symbol>
    <symbol id="icon-vscode-light" viewBox="0 0 100 100">
        <title>비주얼 스튜디오 코드 라이트 로고</title>
        <g clip-path="url(#a)" filter="url(#b)"><mask id="c" width="100" height="100" x="0" y="0" mask-type="alpha" maskUnits="userSpaceOnUse"><path fill="#fff" fill-rule="evenodd" d="M70.912 99.572a6.2 6.2 0 0 0 4.96-.191l20.588-9.958a6.29 6.29 0 0 0 3.54-5.661V16.239a6.29 6.29 0 0 0-3.54-5.662L75.873.62a6.2 6.2 0 0 0-7.104 1.216L29.355 37.98l-17.168-13.1a4.146 4.146 0 0 0-5.318.238l-5.506 5.035a4.205 4.205 0 0 0-.004 6.194L16.247 50 1.36 63.654a4.205 4.205 0 0 0 .004 6.194l5.506 5.034a4.145 4.145 0 0 0 5.318.238l17.168-13.1L68.77 98.166a6.2 6.2 0 0 0 2.143 1.407m4.103-72.39L45.11 50 75.015 72.82z" clip-rule="evenodd"/></mask><g mask="url(#c)"><path fill="#d9d9d9" d="M96.461 10.593 75.857.621a6.205 6.205 0 0 0-7.107 1.214L1.298 63.654a4.203 4.203 0 0 0 .005 6.194l5.51 5.034a4.15 4.15 0 0 0 5.32.238L93.36 13.18c2.725-2.078 6.64-.124 6.64 3.314v-.24a6.29 6.29 0 0 0-3.539-5.661"/><g filter="url(#d)"><path fill="#e6e6e6" d="M96.461 89.407 75.857 99.38a6.205 6.205 0 0 1-7.107-1.215L1.298 36.346a4.203 4.203 0 0 1 .005-6.194l5.51-5.034a4.15 4.15 0 0 1 5.32-.238L93.36 86.82c2.725 2.079 6.64.125 6.64-3.314v.241a6.29 6.29 0 0 1-3.539 5.66"/></g><g filter="url(#e)"><path fill="#fff" d="M75.858 99.38a6.21 6.21 0 0 1-7.108-1.215c2.306 2.318 6.25.676 6.25-2.602V4.437c0-3.278-3.943-4.92-6.25-2.602A6.21 6.21 0 0 1 75.858.619l20.6 9.958A6.29 6.29 0 0 1 100 16.24v67.523a6.29 6.29 0 0 1-3.542 5.661z"/></g><path fill="url(#f)" fill-rule="evenodd" d="M70.85 99.572a6.2 6.2 0 0 0 4.962-.191L96.4 89.423a6.28 6.28 0 0 0 3.539-5.661V16.239a6.29 6.29 0 0 0-3.539-5.662L75.811.62a6.2 6.2 0 0 0-7.103 1.216L29.294 37.98l-17.168-13.1a4.146 4.146 0 0 0-5.318.238l-5.506 5.034a4.205 4.205 0 0 0-.004 6.194L16.186 50 1.298 63.654a4.205 4.205 0 0 0 .004 6.194l5.506 5.034a4.146 4.146 0 0 0 5.318.238l17.168-13.1 39.414 36.145a6.2 6.2 0 0 0 2.143 1.407m4.104-72.39L45.048 50l29.906 22.819z" clip-rule="evenodd" opacity=".25" style="mix-blend-mode:overlay"/></g></g><defs><filter id="b" width="112.5" height="112.5" x="-6.25" y="-4.167" color-interpolation-filters="sRGB" filterUnits="userSpaceOnUse"><feFlood flood-opacity="0" result="BackgroundImageFix"/><feColorMatrix in="SourceAlpha" values="0 0 0 0 0 0 0 0 0 0 0 0 0 0 0 0 0 0 127 0"/><feOffset dy="2.083"/><feGaussianBlur stdDeviation="3.125"/><feColorMatrix values="0 0 0 0 0 0 0 0 0 0 0 0 0 0 0 0 0 0 0.15 0"/><feBlend in2="BackgroundImageFix" result="effect1_dropShadow"/><feBlend in="SourceGraphic" in2="effect1_dropShadow" result="shape"/></filter><filter id="d" width="116.728" height="92.638" x="-8.394" y="15.695" color-interpolation-filters="sRGB" filterUnits="userSpaceOnUse"><feFlood flood-opacity="0" result="BackgroundImageFix"/><feColorMatrix in="SourceAlpha" values="0 0 0 0 0 0 0 0 0 0 0 0 0 0 0 0 0 0 127 0"/><feOffset/><feGaussianBlur stdDeviation="4.167"/><feColorMatrix values="0 0 0 0 0 0 0 0 0 0 0 0 0 0 0 0 0 0 0.25 0"/><feBlend in2="BackgroundImageFix" mode="overlay" result="effect1_dropShadow"/><feBlend in="SourceGraphic" in2="effect1_dropShadow" result="shape"/></filter><filter id="e" width="47.917" height="116.667" x="60.417" y="-8.333" color-interpolation-filters="sRGB" filterUnits="userSpaceOnUse"><feFlood flood-opacity="0" result="BackgroundImageFix"/><feColorMatrix in="SourceAlpha" values="0 0 0 0 0 0 0 0 0 0 0 0 0 0 0 0 0 0 127 0"/><feOffset/><feGaussianBlur stdDeviation="4.167"/><feColorMatrix values="0 0 0 0 0 0 0 0 0 0 0 0 0 0 0 0 0 0 0.25 0"/><feBlend in2="BackgroundImageFix" mode="overlay" result="effect1_dropShadow"/><feBlend in="SourceGraphic" in2="effect1_dropShadow" result="shape"/></filter><linearGradient id="f" x1="49.939" x2="49.939" y1="0" y2="100.001" gradientUnits="userSpaceOnUse"><stop stop-color="#fff"/><stop offset="1" stop-color="#fff" stop-opacity="0"/></linearGradient><clipPath id="a"><path fill="#fff" d="M0 0h100v100H0z"/></clipPath></defs>
    </symbol>
    <symbol id="icon-sublime-text" viewBox="0 0 36 47">
        <title>서브라임 텍스트 로고</title>
        <path fill="url(#a)" fill-rule="evenodd" d="M35.995 23.518c0-.548-.405-.864-.902-.707L.902 33.653C.404 33.81 0 34.383 0 34.93v11.08c0 .549.404.866.902.708l34.191-10.841c.497-.158.902-.731.902-1.28z" clip-rule="evenodd"/><path fill="#ff9800" fill-rule="evenodd" d="M0 23.165c0 .548.404 1.12.902 1.279l34.196 10.843c.498.158.902-.16.902-.706V23.499c0-.547-.404-1.12-.902-1.278L.902 11.378c-.498-.158-.902.158-.902.706z" clip-rule="evenodd"/><path fill="#ff9800" fill-rule="evenodd" d="M35.995.748c0-.548-.405-.865-.902-.707L.902 10.88c-.498.159-.902.732-.902 1.28v11.08c0 .549.404.865.902.708l34.191-10.842c.497-.158.902-.731.902-1.278z" clip-rule="evenodd"/><defs><linearGradient id="a" x1="19.839" x2="23.89" y1="39.453" y2="29.542" gradientUnits="userSpaceOnUse"><stop stop-color="#ff9700"/><stop offset=".53" stop-color="#f48e00"/><stop offset="1" stop-color="#d06f00"/></linearGradient></defs>
    </symbol>
    <symbol id="icon-chrome-minimize" viewBox="0 0 16 17">
        <path fill="currentColor" d="M14 8.09v1H3v-1z"/>
    </symbol>
    <symbol id="icon-chrome-restore" viewBox="0 0 16 17">
        <path fill="currentColor" d="M3 5.09v9h9v-9zm8 8H4v-7h7z"/><path fill="currentColor" d="M5 5.09h1v-1h7v7h-1v1h2v-9H5z"/>
    </symbol>
    <symbol id="icon-chrome-close" viewBox="0 0 16 17">
        <path fill="currentColor" d="m7.116 8.09-4.558 4.56.884.884L8 8.975l4.558 4.558.884-.884L8.884 8.09l4.558-4.558-.884-.884L8 7.207 3.442 2.649l-.884.884z"/>
    </symbol>

    <symbol id="icon-menu-debug-alt" viewBox="0 0 24 25">
        <path fill="currentColor" d="m10.94 13.59-1.32 1.32a3.73 3.73 0 0 0-7.24 0l-1.32-1.32L0 14.65l1.72 1.72-.22.22v1.5H0v1.5h1.5v.08c.077.49.214.967.41 1.42L0 23.03l1.06 1.06 1.65-1.65A4.31 4.31 0 0 0 6 24.09a4.31 4.31 0 0 0 3.29-1.65l1.65 1.65L12 23.03l-1.91-1.94c.198-.463.336-.95.41-1.45v-.1H12v-1.45h-1.5v-1.5l-.22-.22L12 14.65zm-4.94 0a2.25 2.25 0 0 1 2.25 2.25h-4.5A2.25 2.25 0 0 1 6 13.59m3 6a3.33 3.33 0 0 1-3 3 3.33 3.33 0 0 1-3-3v-2.25h6zm14.76-9.9v1.26L13.5 17.46v-1.77l8.5-5.37L9 2.09v9.46a5.1 5.1 0 0 0-1.5-.72V.72L8.64.09z"/>
    </symbol>
    <symbol id="icon-menu-extensions" viewBox="0 0 22 22">
        <path fill="currentColor" d="M21.412 4.548v1.82l-3.786 3.785h1.712l1.563 1.563v7.812l-1.563 1.563H2.151L.588 19.528V2.341L2.151.778h7.812l1.563 1.563V3.52L15.045 0h1.82zM2.151 19.528h7.812v-7.812H2.151zm9.375 0h7.812v-7.812h-7.813zm0-9.375h2.757l-2.758-2.757zm-9.375 0h7.812V2.341H2.151zm9.375-4.813v.236l4.43 4.43 4.547-4.548L15.955.91z"/>
    </symbol>
    <symbol id="icon-menu-files" viewBox="0 0 24 25">
        <path fill="currentColor" d="M17.5.09h-9L7 1.59v4.5H2.5L1 7.59v15.07l1.5 1.43h12.07L16 22.66v-4.57h4.7l1.3-1.43V4.59zm0 2.12 2.38 2.38H17.5zm-3 20.38h-12v-15H7v9.07l1.5 1.43h6zm6-6h-12v-15H16v4.5h4.5z"/>
    </symbol>
    <symbol id="icon-menu-search" viewBox="0 0 24 25">
        <path fill="currentColor" d="M15.25.09a8.25 8.25 0 0 0-6.18 13.72L1 22.97l1.12 1 8.05-9.12A8.249 8.249 0 0 0 21.967 3.56 8.25 8.25 0 0 0 15.25.1zm0 15a6.75 6.75 0 1 1 0-13.5 6.75 6.75 0 0 1 0 13.5"/>
    </symbol>
    <symbol id="icon-menu-settings-gear" viewBox="0 0 24 25">
        <path fill="currentColor" fill-rule="evenodd" clip-rule="evenodd" d="m19.85 8.84 4.15.83v4.84l-4.15.83 2.35 3.52-3.43 3.43-3.52-2.35-.83 4.15H9.58l-.83-4.15-3.52 2.35-3.43-3.43 2.35-3.52L0 14.51V9.67l4.15-.83L1.8 5.32l3.43-3.43 3.52 2.35.83-4.15h4.84l.83 4.15 3.52-2.35 3.43 3.43zm-1.57 5.07 4-.81v-2l-4-.81-.54-1.3 2.29-3.43-1.43-1.43-3.43 2.29-1.3-.54-.81-4h-2l-.81 4-1.3.54-3.43-2.29-1.43 1.43 2.29 3.43-.54 1.3-4 .81v2l4 .81.54 1.3-2.29 3.43 1.43 1.43 3.43-2.29 1.3.54.81 4h2l.81-4 1.3-.54 3.43 2.29 1.43-1.43-2.29-3.43zm-8.186-4.67A3.43 3.43 0 0 1 12 8.66a3.44 3.44 0 0 1 3.43 3.43 3.43 3.43 0 1 1-5.336-2.852m.956 4.274c.281.188.612.288.95.288a1.7 1.7 0 0 0 1.71-1.71 1.71 1.71 0 1 0-2.66 1.422"/>
    </symbol>
    <symbol id="icon-menu-source-control" viewBox="0 0 24 25">
        <path fill="currentColor" d="M21.007 8.313a3.737 3.737 0 1 0-4.806 3.561 2.99 2.99 0 0 1-2.668 1.67h-2.99a4.46 4.46 0 0 0-2.989 1.166V7.489a3.737 3.737 0 1 0-1.494 0v9.118a3.776 3.776 0 1 0 1.816.098 2.99 2.99 0 0 1 2.668-1.666h2.99A4.48 4.48 0 0 0 17.756 12a3.74 3.74 0 0 0 3.25-3.687M4.565 3.827a2.242 2.242 0 1 1 4.484 0 2.242 2.242 0 0 1-4.484 0M9.049 20.27a2.242 2.242 0 1 1-4.484 0 2.242 2.242 0 0 1 4.484 0m8.22-9.715a2.243 2.243 0 1 1 .001-4.486 2.243 2.243 0 0 1 0 4.486"/>
    </symbol>
    <symbol id="icon-menu-v2" viewBox="0 0 16 17">
        <path fill="currentColor" d="M16 8.083C16 3.67 12.416.09 8 .09S0 3.67 0 8.083c0 2.43 1.104 4.62 2.832 6.09.016.016.032.016.032.032.144.112.288.223.448.335.08.048.144.112.224.176a8 8 0 0 0 4.48 1.375 8 8 0 0 0 4.48-1.375c.08-.048.144-.112.224-.16.144-.111.304-.223.448-.335.016-.016.032-.016.032-.032 1.696-1.487 2.8-3.677 2.8-6.106m-8 7a6.94 6.94 0 0 1-4.016-1.278 3 3 0 0 1 .08-.383c.096-.352.24-.688.416-.992.176-.303.384-.575.64-.815.24-.24.528-.463.816-.64.304-.175.624-.303.976-.399A4.2 4.2 0 0 1 8 10.432a4.18 4.18 0 0 1 2.928 1.167q.552.552.864 1.295.168.431.24.911A7.03 7.03 0 0 1 8 15.084m-2.448-7.4a2.5 2.5 0 0 1-.208-1.023c0-.351.064-.703.208-1.023s.336-.607.576-.847.528-.431.848-.575.672-.208 1.024-.208c.368 0 .704.064 1.024.208s.608.335.848.575.432.528.576.847c.144.32.208.672.208 1.023 0 .368-.064.704-.208 1.023-.144.32-.336.608-.576.847a2.8 2.8 0 0 1-.848.576 2.72 2.72 0 0 1-2.064 0 2.8 2.8 0 0 1-.848-.576 2.5 2.5 0 0 1-.56-.847m7.424 5.307c0-.032-.016-.048-.016-.08a5.2 5.2 0 0 0-.688-1.407 4.9 4.9 0 0 0-1.088-1.135 5.2 5.2 0 0 0-1.04-.607 3 3 0 0 0 .464-.383 4.2 4.2 0 0 0 .624-.784 3.6 3.6 0 0 0 .528-1.934 3.7 3.7 0 0 0-.288-1.47 3.8 3.8 0 0 0-.816-1.2 3.9 3.9 0 0 0-1.2-.798 3.7 3.7 0 0 0-1.472-.288 3.7 3.7 0 0 0-1.472.288 3.6 3.6 0 0 0-1.2.815 3.8 3.8 0 0 0-.8 1.199 3.7 3.7 0 0 0-.288 1.47q0 .528.144 1.007c.096.336.224.64.4.927.16.288.384.544.624.784q.216.215.48.383a5 5 0 0 0-1.04.624c-.416.32-.784.703-1.088 1.118a5 5 0 0 0-.688 1.407c-.016.032-.016.064-.016.08C1.776 11.727.992 10 .992 8.083.992 4.23 4.144 1.082 8 1.082s7.008 3.149 7.008 7a6.96 6.96 0 0 1-2.032 4.908"/>
    </symbol>

    <symbol id="icon-explorer-more" viewBox="0 0 24 25">
        <path fill="currentColor" d="M6 12.09a1.5 1.5 0 1 1-3 0 1.5 1.5 0 0 1 3 0m7.5 0a1.5 1.5 0 1 1-3 0 1.5 1.5 0 0 1 3 0m7.5 0a1.5 1.5 0 1 1-3 0 1.5 1.5 0 0 1 3 0"/>
    </symbol>
    <symbol id="icon-explorer-dropdown" viewBox="0 0 16 17">
        <path fill="currentColor" fill-rule="evenodd" clip-rule="evenodd" d="M7.976 10.163 12.333 5.805l.619.619-4.667 4.667h-.618L3 6.424l.619-.619 4.357 4.358Z"/>
    </symbol>

    <symbol id="icon-seti-css" viewBox="0 0 32 32">
        <path fill="#529bba" d="m10.3 23.3.8-4H8.6v-2.1h3l.5-2.5H9.5v-2.1h3.1l.8-3.9h2.8l-.8 3.9h2.8l.8-3.9h2.8l-.8 3.9h2.5v2.1h-2.9l-.6 2.5h2.6v2.1h-3l-.8 4H16l.8-4H14l-.8 4zm6.9-6.1.5-2.5h-2.8l-.5 2.5z"/>
    </symbol>
    <symbol id="icon-seti-default" viewBox="0 0 32 32">
        <path fill="currentColor" d="M10.838 17.058h11.321v1.532H10.838zm0-3.648h6.322v1.532h-6.322zm0-3.648h11.321v1.531H10.838zm0 10.945h8.412v1.531h-8.412z"/>
    </symbol>
    <symbol id="icon-seti-html" viewBox="0 0 32 32">
        <path fill="#ef7623" d="m8 15 6-5.6V12l-4.5 4 4.5 4v2.6L8 17zm16 2.1-6 5.6V20l4.6-4-4.6-4V9.3l6 5.6z"/>
    </symbol>
    <symbol id="icon-seti-info" viewBox="0 0 32 32">
        <path d="M26 15.1c-.1-1.7-.7-3.2-1.6-4.6C23 8.4 21 7 18.6 6.4c-.7-.2-1.4-.3-2-.3H15c-2 .2-3.7.9-5.3 2.1-1.8 1.5-3 3.3-3.5 5.6-.1.5-.2 1.1-.2 1.6V17c.2 1.7.7 3.3 1.7 4.7 1.1 1.6 2.6 2.9 4.4 3.6 1.1.4 2.2.7 3.3.8H17c2.4-.2 4.5-1.2 6.2-3 1.4-1.4 2.3-3.1 2.7-5 .1-.5.1-.9.2-1.4v-1.1c-.1-.2-.1-.3-.1-.5m-10 9.4c-4.7 0-8.4-3.8-8.4-8.5s3.8-8.5 8.6-8.5c4.6.1 8.4 3.8 8.4 8.5-.1 4.7-3.9 8.5-8.6 8.5"/><path d="M18.4 21.4c-.2 0-.3 0-.5-.1-.2 0-.2-.2-.3-.3v-6.5c-1.6.1-3.1.1-4.7.2v.8h1c.4 0 .6.3.6.7v4.6q0 .6-.6.6H13v.8h6v-.8zm-2.6-8.1c1 0 1.7-.8 1.7-1.7s-.8-1.7-1.7-1.7c-1 0-1.7.8-1.7 1.7s.8 1.7 1.7 1.7"/>
    </symbol>
    <symbol id="icon-seti-javascript" viewBox="0 0 32 32">
        <path fill="#f1dd3f" d="M11.4 10h2.7v7.6c0 3.4-1.6 4.6-4.3 4.6-.6 0-1.5-.1-2-.3l.3-2.2c.4.2.9.3 1.4.3 1.1 0 1.9-.5 1.9-2.4zm5.1 9.2c.7.4 1.9.8 3 .8 1.3 0 1.9-.5 1.9-1.3s-.6-1.2-2-1.7c-2-.7-3.3-1.8-3.3-3.6 0-2.1 1.7-3.6 4.6-3.6 1.4 0 2.4.3 3.1.6l-.6 2.2c-.5-.2-1.3-.6-2.5-.6s-1.8.5-1.8 1.2c0 .8.7 1.1 2.2 1.7 2.1.8 3.1 1.9 3.1 3.6 0 2-1.6 3.7-4.9 3.7-1.4 0-2.7-.4-3.4-.7z"/>
    </symbol>
    <symbol id="icon-seti-json" viewBox="0 0 32 32">
        <path fill="#dbcd68" d="M7.5 15.1c1.5 0 1.7-.8 1.7-1.5 0-.6-.1-1.1-.1-1.7S9 10.7 9 10.2c0-2.1 1.3-3 3.4-3h.8v1.9h-.4c-1 0-1.3.6-1.3 1.6 0 .4.1.8.1 1.3 0 .4.1.9.1 1.5 0 1.7-.7 2.3-1.9 2.6 1.2.3 1.9.9 1.9 2.6 0 .6-.1 1.1-.1 1.5s-.1.9-.1 1.2c0 1 .3 1.6 1.3 1.6h.4v1.9h-.8c-2 0-3.3-.8-3.3-3 0-.6 0-1.1.1-1.7s.1-1.2.1-1.7c0-.6-.2-1.5-1.7-1.5zm17 1.7c-1.5 0-1.7.9-1.7 1.5s.1 1.1.1 1.7c.1.6.1 1.2.1 1.7 0 2.2-1.4 3-3.4 3h-.8V23h.4c1 0 1.3-.6 1.3-1.6 0-.4 0-.8-.1-1.2 0-.5-.1-1-.1-1.5 0-1.7.7-2.3 1.9-2.6-1.2-.3-1.9-.9-1.9-2.6 0-.6.1-1.1.1-1.5.1-.5.1-.9.1-1.3 0-1-.4-1.5-1.3-1.6h-.4V7.2h.8c2.1 0 3.4.9 3.4 3 0 .6-.1 1.1-.1 1.7-.1.6-.1 1.2-.1 1.7 0 .7.2 1.5 1.7 1.5z"/>
    </symbol>
    <symbol id="icon-seti-markdown" viewBox="0 0 32 32">
        <path fill="#529bba" d="M20.7 6.7v9.9h3.8c-2.9 3-5.8 5.9-8.7 8.8-2.7-2.8-5.6-5.8-8.4-8.7h3.5V6.6c1.3.9 4.4 3.1 5 3.1s3.6-2.2 4.8-3"/>
    </symbol>
    <symbol id="icon-seti-sass" viewBox="0 0 32 32">
        <path fill="#cf6499" d="M18 17.3c-1.1.7-2.4 1.5-3.5 2.2.4.9.4 1.8.1 2.7-.5 1.6-1.7 2.5-3.2 2.7-.4.1-.8 0-1.1-.1-.4-.1-.6-.4-.7-.7q-.6-1.35.3-2.4c.4-.4.8-.9 1.3-1.2.5-.4 1.2-.7 1.8-1.1.1-.1.2-.1.4-.2-.3-.2-.4-.4-.6-.4-.8-.5-1.6-1.1-2.3-1.8-.4-.4-.8-.8-1.1-1.3-.9-.7-1-1.7-.5-2.6.4-1 1.1-1.8 1.8-2.5 1.6-1.4 3.4-2.4 5.4-3.1 1.4-.5 2.8-.7 4.2-.5.4.2 1 .3 1.4.5 1.5.6 2.1 1.8 1.6 3.4-.4 1.3-1.2 2.4-2.4 3.1-1.6 1-3.2 1.4-5.1 1.1-.6-.1-1.1-.4-1.6-.9-.1-.2-.2-.4-.3-.5 0 0 0-.1.1-.2 0 0 .1 0 .2.1.8.8 1.7.9 2.6.7 1.7-.3 3.2-.9 4.3-2.2.4-.5.8-1.1 1-1.8.2-.8-.2-1.4-.9-1.8-.8-.4-1.6-.4-2.4-.3-2 .3-3.8 1.1-5.4 2.1-.9.5-1.7 1.1-2.3 1.9-.3.4-.5.8-.7 1.2-.3.8-.2 1.6.4 2.2.4.4.8.8 1.2 1.1.6.5 1.3 1.1 1.9 1.6.1 0 .2.1.3 0 .3-.2.5-.3.8-.4.9-.5 1.8-.9 2.8-1.1 0 .4.1.4.2.5q0-.15 0 0m-4.3 2.5c-.9.5-1.6 1-2.3 1.7-.4.4-.6.8-.7 1.3-.1.6.3.9.9.8.8-.2 1.4-.7 1.8-1.3.5-.8.5-1.5.3-2.5"/>
    </symbol>

    <symbol id="icon-statusbar-bell" viewBox="0 0 16 16">
        <path fill="currentColor" d="M13.38 10.57a7.6 7.6 0 0 1-.38-2.38V6.2a5.12 5.12 0 0 0-1.27-3.45 5.14 5.14 0 0 0-3.24-1.72 5.5 5.5 0 0 0-2.07.23 4.9 4.9 0 0 0-3 2.73 5.1 5.1 0 0 0-.43 2.02v2.2a7.6 7.6 0 0 1-.38 2.37L2 12.34l.48.66h3.5a2 2 0 0 0 4 0h3.5l.48-.66zm-4.69 3.15a1 1 0 0 1-1.41 0 1 1 0 0 1-.3-.71h2a1 1 0 0 1-.29.71zm-5.52-1.71.37-1.11a8.6 8.6 0 0 0 .44-2.69V6a4.9 4.9 0 0 1 3.4-4.39 4.15 4.15 0 0 1 3.6 1.22 4.13 4.13 0 0 1 1 2.78v2c0 .91.14 1.82.44 2.69l.37 1.11H3.17z"/>
    </symbol>
    <symbol id="icon-statusbar-copilot" viewBox="0 0 16 16">
        <path fill="currentColor" d="M6.25 9.02c.41 0 .75.33.75.75v1.5a.75.75 0 0 1-1.5 0V9.77c0-.42.34-.75.75-.75m4.25.74a.75.75 0 0 0-1.5 0v1.5a.75.75 0 0 0 1.5 0z"/><path fill="currentColor" d="M7.86 1.8q.08.08.14.16.07-.08.14-.16c.68-.73 1.74-.9 2.94-.76 1.23.13 2.15.52 2.72 1.26.57.71.7 1.61.7 2.48 0 .57-.05 1.14-.25 1.65l.17.84.07.03A2.74 2.74 0 0 1 16 9.75v1.26c0 .24-.09.44-.16.57a2 2 0 0 1-.26.36 6 6 0 0 1-.61.58 9 9 0 0 1-.56.43q-.36.26-.74.48a12 12 0 0 1-1.3.64C11.3 14.53 9.76 15 8 15s-3.3-.47-4.39-.93a12 12 0 0 1-1.3-.64 9 9 0 0 1-.74-.48 10 10 0 0 1-.56-.43 5 5 0 0 1-.61-.58 2 2 0 0 1-.26-.36 1.2 1.2 0 0 1-.16-.57V9.75c0-1.04.59-1.99 1.52-2.45l.07-.03.17-.84c-.2-.5-.26-1.08-.26-1.65 0-.87.13-1.76.69-2.48.58-.73 1.49-1.12 2.72-1.26 1.21-.13 2.26.03 2.94.76M3.02 7.73 3 7.84v4.25l.07.04c.26.15.65.36 1.13.56.97.41 2.3.81 3.8.81s2.83-.4 3.8-.81a11 11 0 0 0 1.2-.6V7.84l-.02-.11c-.49.21-1.08.29-1.73.29-1.15 0-2.06-.33-2.71-.99a3.2 3.2 0 0 1-.54-.74 3.2 3.2 0 0 1-.54.74c-.65.66-1.56.99-2.71.99-.65 0-1.24-.08-1.73-.29m3.74-4.9c-.19-.2-.64-.41-1.68-.3-1.02.11-1.48.4-1.71.7-.25.31-.37.79-.37 1.55 0 .79.13 1.17.31 1.37.16.18.52.38 1.44.38.85 0 1.34-.24 1.64-.54.31-.32.53-.83.62-1.55.12-.93-.04-1.39-.24-1.61m2.47 0c-.2.22-.36.68-.24 1.61.09.72.3 1.23.62 1.55.3.3.79.54 1.64.54.92 0 1.28-.2 1.44-.38.18-.2.31-.58.31-1.37 0-.76-.12-1.24-.37-1.55-.23-.3-.69-.59-1.71-.7-1.04-.12-1.49.1-1.68.3"/>
    </symbol>
    <symbol id="icon-statusbar-error" viewBox="0 0 16 16">
        <path fill="currentColor" fill-rule="evenodd" clip-rule="evenodd" d="M8.6 1c1.6.1 3.1.9 4.2 2 1.3 1.4 2 3.1 2 5.1 0 1.6-.6 3.1-1.6 4.4-1 1.2-2.4 2.1-4 2.4s-3.2.1-4.6-.7-2.5-2-3.1-3.5S.8 7.5 1.3 6c.5-1.6 1.4-2.9 2.8-3.8C5.4 1.3 7 .9 8.6 1m.5 12.9c1.3-.3 2.5-1 3.4-2.1.8-1.1 1.3-2.4 1.2-3.8 0-1.6-.6-3.2-1.7-4.3-1-1-2.2-1.6-3.6-1.7-1.3-.1-2.7.2-3.8 1S2.7 4.9 2.3 6.3c-.4 1.3-.4 2.7.2 4q.9 2 2.7 3c1.2.7 2.6.9 3.9.6M7.9 7.5 10.3 5l.7.7-2.4 2.5 2.4 2.5-.7.7-2.4-2.5-2.4 2.5-.7-.7 2.4-2.5-2.4-2.5.7-.7z"/>
    </symbol>
    <symbol id="icon-statusbar-remote" viewBox="0 0 16 16">
        <path fill="currentColor" fill-rule="evenodd" clip-rule="evenodd" d="M12.9 9.57 8.93 5.6l3.98-3.98-.62-.62L8 5.29v.62l4.29 4.29.62-.62zM3 5.62l4.07 4.07L3 13.76l.62.62L8 10v-.62L3.62 5 3 5.62z"/>
    </symbol>
    <symbol id="icon-statusbar-sync" viewBox="0 0 16 16">
        <path fill="currentColor" d="m2.85 6.65 2 2-.7.7-1.14-1.14A5 5 0 0 0 8 13c1.67 0 3.23-.83 4.16-2.23l.83.56A6 6 0 0 1 8 14a6 6 0 0 1-6-5.8l-1.15 1.15-.7-.7 2-2zM8 2a6 6 0 0 1 6 5.8l1.15-1.15.7.7-2 2h-.7l-2-2 .7-.7 1.14 1.14A5 5 0 0 0 8 3c-1.68 0-3.23.83-4.16 2.23l-.83-.56A6 6 0 0 1 8 2"/>
    </symbol>
    <symbol id="icon-statusbar-warning" viewBox="0 0 16 16">
        <path fill="currentColor" fill-rule="evenodd" clip-rule="evenodd" d="M7.56 1h.88l6.54 12.26-.44.74H1.44L1 13.26zM8 2.28 2.28 13H13.7zM8.63 12v-1h-1.25v1zm-1.25-2V6h1.25v4z"/>
    </symbol>
    <symbol id="icon-statusbar-symbol-namespace" viewBox="0 0 16 16">
        <path fill="currentColor" fill-rule="evenodd" clip-rule="evenodd" d="M6 2.98V2h-.09q-.47 0-.91.19a2.3 2.3 0 0 0-.78.53 2.2 2.2 0 0 0-.49.75 3.5 3.5 0 0 0-.2.83 6 6 0 0 0-.02.86q.02.43.02.87 0 .3-.12.57a1.5 1.5 0 0 1-.76.79 1.4 1.4 0 0 1-.56.11H2v.98h.09q.29 0 .56.12.27.12.46.32.2.2.31.47.12.27.12.57 0 .43-.02.87-.02.44.02.87.05.43.2.82.16.41.49.75.34.34.78.53t.91.19H6v-.98h-.09q-.3 0-.56-.12a1.6 1.6 0 0 1-.46-.32 1.7 1.7 0 0 1-.31-.47q-.11-.27-.11-.57 0-.34.01-.67.01-.34 0-.67a5 5 0 0 0-.06-.64 2.7 2.7 0 0 0-.17-.61A2.3 2.3 0 0 0 3.52 8a2.3 2.3 0 0 0 .74-.95q.12-.29.17-.6.05-.32.05-.64.01-.33 0-.67t-.01-.68a1.47 1.47 0 0 1 .88-1.35 1.3 1.3 0 0 1 .56-.12zm4 10.03V14h.09q.47 0 .91-.19t.78-.53.49-.75q.15-.4.2-.83.04-.42.02-.86-.02-.43-.02-.87 0-.3.12-.57a1.5 1.5 0 0 1 .77-.79q.26-.12.56-.12H14v-.98h-.09q-.29 0-.56-.12a1.4 1.4 0 0 1-.46-.32 1.4 1.4 0 0 1-.31-.47 1.4 1.4 0 0 1-.12-.57q0-.43.02-.87a6 6 0 0 0-.02-.87 3.5 3.5 0 0 0-.2-.82 2.2 2.2 0 0 0-.49-.75 2.3 2.3 0 0 0-.78-.53 2.3 2.3 0 0 0-.91-.19H10v.98h.09q.3 0 .56.12.26.12.46.32.19.2.31.47.11.27.11.57 0 .34-.01.67-.01.34 0 .67.01.33.06.64.05.32.17.61a2.3 2.3 0 0 0 .74.95 2.3 2.3 0 0 0-.74.95 2.7 2.7 0 0 0-.17.6q-.05.32-.06.64-.01.33 0 .67t.01.68a1.47 1.47 0 0 1-.42 1.04 1.5 1.5 0 0 1-.46.32 1.3 1.3 0 0 1-.56.12z"/>
    </symbol>

</svg>