<svg xmlns="http://www.w3.org/2000/svg" style="display: none;">
    <symbol id="icon-vscode" viewBox="0 0 100 100">
        <title>비주얼 스튜디오 코드 로고</title>
        <mask id="vscode-a" width="100" height="100" x="0" y="0" mask-type="alpha" maskUnits="userSpaceOnUse"><path fill="#fff" fill-rule="evenodd" d="M70.912 99.317a6.22 6.22 0 0 0 4.96-.19l20.589-9.907A6.25 6.25 0 0 0 100 83.587V16.413a6.25 6.25 0 0 0-3.54-5.632L75.874.874a6.23 6.23 0 0 0-7.104 1.21L29.355 38.04 12.187 25.01a4.16 4.16 0 0 0-5.318.236l-5.506 5.009a4.17 4.17 0 0 0-.004 6.162L16.247 50 1.36 63.583a4.17 4.17 0 0 0 .004 6.162l5.506 5.01a4.16 4.16 0 0 0 5.318.236l17.168-13.032L68.77 97.917a6.2 6.2 0 0 0 2.143 1.4M75.015 27.3 45.11 50l29.906 22.701z" clip-rule="evenodd"/></mask><g mask="url(#a)"><path fill="#0065a9" d="M96.461 10.796 75.857.876a6.23 6.23 0 0 0-7.107 1.207l-67.451 61.5a4.167 4.167 0 0 0 .004 6.162l5.51 5.009a4.17 4.17 0 0 0 5.32.236l81.228-61.62c2.725-2.067 6.639-.124 6.639 3.297v-.24a6.25 6.25 0 0 0-3.539-5.63"/><g filter="url(#b)"><path fill="#007acc" d="m96.461 89.204-20.604 9.92a6.23 6.23 0 0 1-7.107-1.207l-67.451-61.5a4.167 4.167 0 0 1 .004-6.162l5.51-5.009a4.17 4.17 0 0 1 5.32-.236l81.228 61.62c2.725 2.067 6.639.124 6.639-3.297v.24a6.25 6.25 0 0 1-3.539 5.63"/></g><g filter="url(#c)"><path fill="#1f9cf0" d="M75.858 99.126a6.23 6.23 0 0 1-7.108-1.21c2.306 2.307 6.25.674 6.25-2.588V4.672c0-3.262-3.944-4.895-6.25-2.589a6.23 6.23 0 0 1 7.108-1.21l20.6 9.908A6.25 6.25 0 0 1 100 16.413v67.174a6.25 6.25 0 0 1-3.541 5.633z"/></g><path fill="url(#d)" fill-rule="evenodd" d="M70.851 99.317a6.22 6.22 0 0 0 4.96-.19L96.4 89.22a6.25 6.25 0 0 0 3.54-5.633V16.413a6.25 6.25 0 0 0-3.54-5.632L75.812.874a6.23 6.23 0 0 0-7.104 1.21L29.294 38.04 12.126 25.01a4.16 4.16 0 0 0-5.317.236l-5.507 5.009a4.17 4.17 0 0 0-.004 6.162L16.186 50 1.298 63.583a4.17 4.17 0 0 0 .004 6.162l5.507 5.009a4.16 4.16 0 0 0 5.317.236L29.294 61.96l39.414 35.958a6.2 6.2 0 0 0 2.143 1.4M74.954 27.3 45.048 50l29.906 22.701z" clip-rule="evenodd" opacity=".25" style="mix-blend-mode:overlay"/></g><defs><filter id="vscode-b" width="116.727" height="92.246" x="-8.394" y="15.829" color-interpolation-filters="sRGB" filterUnits="userSpaceOnUse"><feFlood flood-opacity="0" result="BackgroundImageFix"/><feColorMatrix in="SourceAlpha" values="0 0 0 0 0 0 0 0 0 0 0 0 0 0 0 0 0 0 127 0"/><feOffset/><feGaussianBlur stdDeviation="4.167"/><feColorMatrix values="0 0 0 0 0 0 0 0 0 0 0 0 0 0 0 0 0 0 0.25 0"/><feBlend in2="BackgroundImageFix" mode="overlay" result="effect1_dropShadow"/><feBlend in="SourceGraphic" in2="effect1_dropShadow" result="shape"/></filter><filter id="vscode-c" width="47.917" height="116.151" x="60.417" y="-8.076" color-interpolation-filters="sRGB" filterUnits="userSpaceOnUse"><feFlood flood-opacity="0" result="BackgroundImageFix"/><feColorMatrix in="SourceAlpha" values="0 0 0 0 0 0 0 0 0 0 0 0 0 0 0 0 0 0 127 0"/><feOffset/><feGaussianBlur stdDeviation="4.167"/><feColorMatrix values="0 0 0 0 0 0 0 0 0 0 0 0 0 0 0 0 0 0 0.25 0"/><feBlend in2="BackgroundImageFix" mode="overlay" result="effect1_dropShadow"/><feBlend in="SourceGraphic" in2="effect1_dropShadow" result="shape"/></filter><linearGradient id="vscode-d" x1="49.939" x2="49.939" y1=".258" y2="99.742" gradientUnits="userSpaceOnUse"><stop stop-color="#fff"/><stop offset="1" stop-color="#fff" stop-opacity="0"/></linearGradient></defs>
    </symbol>
    <symbol id="icon-chrome-minimize" viewBox="0 0 16 17">
        <path fill="currentColor" d="M14 8.09v1H3v-1z"/>
    </symbol>
    <symbol id="icon-chrome-restore" viewBox="0 0 16 17">
        <path fill="currentColor" d="M3 5.09v9h9v-9zm8 8H4v-7h7z"/><path fill="currentColor" fill-rule="evenodd" d="M5 5.09h1v-1h7v7h-1v1h2v-9H5z" clip-rule="evenodd"/>
    </symbol>
    <symbol id="icon-chrome-close" viewBox="0 0 16 17">
        <path fill="currentColor" fill-rule="evenodd" d="M7.116 8.09 2.558 12.65l.884.884L8 8.975l4.558 4.558.884-.884L8.884 8.09l4.558-4.558-.884-.884L8 7.207 3.442 2.649l-.884.884z" clip-rule="evenodd"/>
    </symbol>

    <symbol id="icon-seti-css" viewBox="0 0 32 32">
        <path fill="#529bba" d="m10.3 23.3.8-4H8.6v-2.1h3l.5-2.5H9.5v-2.1h3.1l.8-3.9h2.8l-.8 3.9h2.8l.8-3.9h2.8l-.8 3.9h2.5v2.1h-2.9l-.6 2.5h2.6v2.1h-3l-.8 4H16l.8-4H14l-.8 4zm6.9-6.1.5-2.5h-2.8l-.5 2.5z"/>
    </symbol>
    <symbol id="icon-seti-default" viewBox="0 0 32 32">
        <path fill="currentColor" d="M10.838 17.058h11.321v1.532H10.838zm0-3.648h6.322v1.532h-6.322zm0-3.648h11.321v1.531H10.838zm0 10.945h8.412v1.531h-8.412z"/>
    </symbol>
    <symbol id="icon-seti-html" viewBox="0 0 32 32">
        <path fill="#ef7623" d="m8 15 6-5.6V12l-4.5 4 4.5 4v2.6L8 17zm16 2.1-6 5.6V20l4.6-4-4.6-4V9.3l6 5.6z"/>
    </symbol>
    <symbol id="icon-seti-info" viewBox="0 0 32 32">
        <path d="M26 15.1c-.1-1.7-.7-3.2-1.6-4.6C23 8.4 21 7 18.6 6.4c-.7-.2-1.4-.3-2-.3H15c-2 .2-3.7.9-5.3 2.1-1.8 1.5-3 3.3-3.5 5.6-.1.5-.2 1.1-.2 1.6V17c.2 1.7.7 3.3 1.7 4.7 1.1 1.6 2.6 2.9 4.4 3.6 1.1.4 2.2.7 3.3.8H17c2.4-.2 4.5-1.2 6.2-3 1.4-1.4 2.3-3.1 2.7-5 .1-.5.1-.9.2-1.4v-1.1c-.1-.2-.1-.3-.1-.5m-10 9.4c-4.7 0-8.4-3.8-8.4-8.5s3.8-8.5 8.6-8.5c4.6.1 8.4 3.8 8.4 8.5-.1 4.7-3.9 8.5-8.6 8.5"/><path d="M18.4 21.4c-.2 0-.3 0-.5-.1-.2 0-.2-.2-.3-.3v-6.5c-1.6.1-3.1.1-4.7.2v.8h1c.4 0 .6.3.6.7v4.6q0 .6-.6.6H13v.8h6v-.8zm-2.6-8.1c1 0 1.7-.8 1.7-1.7s-.8-1.7-1.7-1.7c-1 0-1.7.8-1.7 1.7s.8 1.7 1.7 1.7"/>
    </symbol>
    <symbol id="icon-seti-javascript" viewBox="0 0 32 32">
        <path fill="#f1dd3f" d="M11.4 10h2.7v7.6c0 3.4-1.6 4.6-4.3 4.6-.6 0-1.5-.1-2-.3l.3-2.2c.4.2.9.3 1.4.3 1.1 0 1.9-.5 1.9-2.4zm5.1 9.2c.7.4 1.9.8 3 .8 1.3 0 1.9-.5 1.9-1.3s-.6-1.2-2-1.7c-2-.7-3.3-1.8-3.3-3.6 0-2.1 1.7-3.6 4.6-3.6 1.4 0 2.4.3 3.1.6l-.6 2.2c-.5-.2-1.3-.6-2.5-.6s-1.8.5-1.8 1.2c0 .8.7 1.1 2.2 1.7 2.1.8 3.1 1.9 3.1 3.6 0 2-1.6 3.7-4.9 3.7-1.4 0-2.7-.4-3.4-.7z"/>
    </symbol>
    <symbol id="icon-seti-json" viewBox="0 0 32 32">
        <path fill="#dbcd68" d="M7.5 15.1c1.5 0 1.7-.8 1.7-1.5 0-.6-.1-1.1-.1-1.7S9 10.7 9 10.2c0-2.1 1.3-3 3.4-3h.8v1.9h-.4c-1 0-1.3.6-1.3 1.6 0 .4.1.8.1 1.3 0 .4.1.9.1 1.5 0 1.7-.7 2.3-1.9 2.6 1.2.3 1.9.9 1.9 2.6 0 .6-.1 1.1-.1 1.5s-.1.9-.1 1.2c0 1 .3 1.6 1.3 1.6h.4v1.9h-.8c-2 0-3.3-.8-3.3-3 0-.6 0-1.1.1-1.7s.1-1.2.1-1.7c0-.6-.2-1.5-1.7-1.5zm17 1.7c-1.5 0-1.7.9-1.7 1.5s.1 1.1.1 1.7c.1.6.1 1.2.1 1.7 0 2.2-1.4 3-3.4 3h-.8V23h.4c1 0 1.3-.6 1.3-1.6 0-.4 0-.8-.1-1.2 0-.5-.1-1-.1-1.5 0-1.7.7-2.3 1.9-2.6-1.2-.3-1.9-.9-1.9-2.6 0-.6.1-1.1.1-1.5.1-.5.1-.9.1-1.3 0-1-.4-1.5-1.3-1.6h-.4V7.2h.8c2.1 0 3.4.9 3.4 3 0 .6-.1 1.1-.1 1.7-.1.6-.1 1.2-.1 1.7 0 .7.2 1.5 1.7 1.5z"/>
    </symbol>
    <symbol id="icon-seti-markdown" viewBox="0 0 32 32">
        <path fill="#529bba" d="M20.7 6.7v9.9h3.8c-2.9 3-5.8 5.9-8.7 8.8-2.7-2.8-5.6-5.8-8.4-8.7h3.5V6.6c1.3.9 4.4 3.1 5 3.1s3.6-2.2 4.8-3"/>
    </symbol>
    <symbol id="icon-seti-sass" viewBox="0 0 32 32">
        <path fill="#cf6499" d="M18 17.3c-1.1.7-2.4 1.5-3.5 2.2.4.9.4 1.8.1 2.7-.5 1.6-1.7 2.5-3.2 2.7-.4.1-.8 0-1.1-.1-.4-.1-.6-.4-.7-.7q-.6-1.35.3-2.4c.4-.4.8-.9 1.3-1.2.5-.4 1.2-.7 1.8-1.1.1-.1.2-.1.4-.2-.3-.2-.4-.4-.6-.4-.8-.5-1.6-1.1-2.3-1.8-.4-.4-.8-.8-1.1-1.3-.9-.7-1-1.7-.5-2.6.4-1 1.1-1.8 1.8-2.5 1.6-1.4 3.4-2.4 5.4-3.1 1.4-.5 2.8-.7 4.2-.5.4.2 1 .3 1.4.5 1.5.6 2.1 1.8 1.6 3.4-.4 1.3-1.2 2.4-2.4 3.1-1.6 1-3.2 1.4-5.1 1.1-.6-.1-1.1-.4-1.6-.9-.1-.2-.2-.4-.3-.5 0 0 0-.1.1-.2 0 0 .1 0 .2.1.8.8 1.7.9 2.6.7 1.7-.3 3.2-.9 4.3-2.2.4-.5.8-1.1 1-1.8.2-.8-.2-1.4-.9-1.8-.8-.4-1.6-.4-2.4-.3-2 .3-3.8 1.1-5.4 2.1-.9.5-1.7 1.1-2.3 1.9-.3.4-.5.8-.7 1.2-.3.8-.2 1.6.4 2.2.4.4.8.8 1.2 1.1.6.5 1.3 1.1 1.9 1.6.1 0 .2.1.3 0 .3-.2.5-.3.8-.4.9-.5 1.8-.9 2.8-1.1 0 .4.1.4.2.5q0-.15 0 0m-4.3 2.5c-.9.5-1.6 1-2.3 1.7-.4.4-.6.8-.7 1.3-.1.6.3.9.9.8.8-.2 1.4-.7 1.8-1.3.5-.8.5-1.5.3-2.5"/>
    </symbol>

</svg>