<svg xmlns="http://www.w3.org/2000/svg" viewBox="0 0 24 25">
  <path fill="currentColor" d="m10.94 13.59-1.32 1.32a3.73 3.73 0 0 0-7.24 0l-1.32-1.32L0 14.65l1.72 1.72-.22.22v1.5H0v1.5h1.5v.08c.077.49.214.967.41 1.42L0 23.03l1.06 1.06 1.65-1.65A4.31 4.31 0 0 0 6 24.09a4.31 4.31 0 0 0 3.29-1.65l1.65 1.65L12 23.03l-1.91-1.94c.198-.463.336-.95.41-1.45v-.1H12v-1.45h-1.5v-1.5l-.22-.22L12 14.65zm-4.94 0a2.25 2.25 0 0 1 2.25 2.25h-4.5A2.25 2.25 0 0 1 6 13.59m3 6a3.33 3.33 0 0 1-3 3 3.33 3.33 0 0 1-3-3v-2.25h6zm14.76-9.9v1.26L13.5 17.46v-1.77l8.5-5.37L9 2.09v9.46a5.1 5.1 0 0 0-1.5-.72V.72L8.64.09z"/>
</svg>