<svg xmlns="http://www.w3.org/2000/svg" viewBox="0 0 24 25">
  <path fill="currentColor" d="M21.007 8.313a3.737 3.737 0 1 0-4.806 3.561 2.99 2.99 0 0 1-2.668 1.67h-2.99a4.46 4.46 0 0 0-2.989 1.166V7.489a3.737 3.737 0 1 0-1.494 0v9.118a3.776 3.776 0 1 0 1.816.098 2.99 2.99 0 0 1 2.668-1.666h2.99A4.48 4.48 0 0 0 17.756 12a3.74 3.74 0 0 0 3.25-3.687M4.565 3.827a2.242 2.242 0 1 1 4.484 0 2.242 2.242 0 0 1-4.484 0M9.049 20.27a2.242 2.242 0 1 1-4.484 0 2.242 2.242 0 0 1 4.484 0m8.22-9.715a2.243 2.243 0 1 1 .001-4.486 2.243 2.243 0 0 1 0 4.486"/>
</svg>