<svg xmlns="http://www.w3.org/2000/svg" width="36" height="47" fill="none" viewBox="0 0 36 47"><path fill="url(#a)" fill-rule="evenodd" d="M35.995 23.518c0-.548-.405-.864-.902-.707L.902 33.653C.404 33.81 0 34.383 0 34.93v11.08c0 .549.404.866.902.708l34.191-10.841c.497-.158.902-.731.902-1.28z" clip-rule="evenodd"/><path fill="#ff9800" fill-rule="evenodd" d="M0 23.165c0 .548.404 1.12.902 1.279l34.196 10.843c.498.158.902-.16.902-.706V23.499c0-.547-.404-1.12-.902-1.278L.902 11.378c-.498-.158-.902.158-.902.706z" clip-rule="evenodd"/><path fill="#ff9800" fill-rule="evenodd" d="M35.995.748c0-.548-.405-.865-.902-.707L.902 10.88c-.498.159-.902.732-.902 1.28v11.08c0 .549.404.865.902.708l34.191-10.842c.497-.158.902-.731.902-1.278z" clip-rule="evenodd"/><defs><linearGradient id="a" x1="19.839" x2="23.89" y1="39.453" y2="29.542" gradientUnits="userSpaceOnUse"><stop stop-color="#ff9700"/><stop offset=".53" stop-color="#f48e00"/><stop offset="1" stop-color="#d06f00"/></linearGradient></defs></svg>