<svg xmlns="http://www.w3.org/2000/svg" viewBox="0 0 16 17">
  <path fill="currentColor" d="M16 8.083C16 3.67 12.416.09 8 .09S0 3.67 0 8.083c0 2.43 1.104 4.62 2.832 6.09.016.016.032.016.032.032.144.112.288.223.448.335.08.048.144.112.224.176a8 8 0 0 0 4.48 1.375 8 8 0 0 0 4.48-1.375c.08-.048.144-.112.224-.16.144-.111.304-.223.448-.335.016-.016.032-.016.032-.032 1.696-1.487 2.8-3.677 2.8-6.106m-8 7a6.94 6.94 0 0 1-4.016-1.278 3 3 0 0 1 .08-.383c.096-.352.24-.688.416-.992.176-.303.384-.575.64-.815.24-.24.528-.463.816-.64.304-.175.624-.303.976-.399A4.2 4.2 0 0 1 8 10.432a4.18 4.18 0 0 1 2.928 1.167q.552.552.864 1.295.168.431.24.911A7.03 7.03 0 0 1 8 15.084m-2.448-7.4a2.5 2.5 0 0 1-.208-1.023c0-.351.064-.703.208-1.023s.336-.607.576-.847.528-.431.848-.575.672-.208 1.024-.208c.368 0 .704.064 1.024.208s.608.335.848.575.432.528.576.847c.144.32.208.672.208 1.023 0 .368-.064.704-.208 1.023-.144.32-.336.608-.576.847a2.8 2.8 0 0 1-.848.576 2.72 2.72 0 0 1-2.064 0 2.8 2.8 0 0 1-.848-.576 2.5 2.5 0 0 1-.56-.847m7.424 5.307c0-.032-.016-.048-.016-.08a5.2 5.2 0 0 0-.688-1.407 4.9 4.9 0 0 0-1.088-1.135 5.2 5.2 0 0 0-1.04-.607 3 3 0 0 0 .464-.383 4.2 4.2 0 0 0 .624-.784 3.6 3.6 0 0 0 .528-1.934 3.7 3.7 0 0 0-.288-1.47 3.8 3.8 0 0 0-.816-1.2 3.9 3.9 0 0 0-1.2-.798 3.7 3.7 0 0 0-1.472-.288 3.7 3.7 0 0 0-1.472.288 3.6 3.6 0 0 0-1.2.815 3.8 3.8 0 0 0-.8 1.199 3.7 3.7 0 0 0-.288 1.47q0 .528.144 1.007c.096.336.224.64.4.927.16.288.384.544.624.784q.216.215.48.383a5 5 0 0 0-1.04.624c-.416.32-.784.703-1.088 1.118a5 5 0 0 0-.688 1.407c-.016.032-.016.064-.016.08C1.776 11.727.992 10 .992 8.083.992 4.23 4.144 1.082 8 1.082s7.008 3.149 7.008 7a6.96 6.96 0 0 1-2.032 4.908"/>
</svg>